<svg xmlns="http://www.w3.org/2000/svg" xmlns:xlink="http://www.w3.org/1999/xlink" width="30" height="30" viewBox="0 0 30 30"><defs><style>.a{fill:url(#a);}.b{fill:#fff;}</style><radialGradient id="a" cx="0.293" cy="1.077" r="1.325" gradientTransform="translate(0 0)" gradientUnits="objectBoundingBox"><stop offset="0.097" stop-color="#ffd87a"/><stop offset="0.143" stop-color="#fcce78"/><stop offset="0.226" stop-color="#f5b471"/><stop offset="0.338" stop-color="#eb8d65"/><stop offset="0.449" stop-color="#e36058"/><stop offset="0.679" stop-color="#cd3694"/><stop offset="1" stop-color="#6668b0"/></radialGradient></defs><path class="a" d="M30,23.15A6.847,6.847,0,0,1,23.15,30H6.85A6.847,6.847,0,0,1,0,23.15V6.855A6.857,6.857,0,0,1,6.855,0H23.045A6.952,6.952,0,0,1,30,6.955Z"/><g transform="translate(4.192 4.198)"><path class="b" d="M85.456,70.6h-8.3A6.661,6.661,0,0,0,70.5,77.259V85.55A6.653,6.653,0,0,0,77.159,92.2H85.45A6.651,6.651,0,0,0,92.1,85.55V77.259A6.644,6.644,0,0,0,85.456,70.6Zm4.579,14.152a5.376,5.376,0,0,1-5.378,5.378h-6.7a5.376,5.376,0,0,1-5.378-5.378v-6.7a5.376,5.376,0,0,1,5.378-5.378h6.7a5.38,5.38,0,0,1,5.378,5.378Z" transform="translate(-70.5 -70.6)"/><path class="b" d="M169.11,159a5.591,5.591,0,1,0,5.81,5.587A5.7,5.7,0,0,0,169.11,159Zm0,8.943a3.365,3.365,0,1,1,3.5-3.362A3.429,3.429,0,0,1,169.11,167.943Z" transform="translate(-158.018 -153.743)"/><path class="b" d="M330.049,134.081a1.475,1.475,0,1,1-1.475-1.481A1.474,1.474,0,0,1,330.049,134.081Z" transform="translate(-312.198 -128.999)"/></g></svg>