<svg xmlns="http://www.w3.org/2000/svg" width="30" height="30" viewBox="0 0 30 30"><defs><style>.a{fill:#3a5ba0;}.b{fill:#fff;}</style></defs><path class="a" d="M28.5,1H3.5A2.507,2.507,0,0,0,1,3.5v25A2.507,2.507,0,0,0,3.5,31h25A2.507,2.507,0,0,0,31,28.5V3.5A2.507,2.507,0,0,0,28.5,1Z" transform="translate(-1 -1)"/><path class="b" d="M26.286,20.057l.619-3.143h-3.1V14.4c0-.943.5-1.257,1.857-1.257H26.9V10H24.429A4.03,4.03,0,0,0,20.1,14.4v2.514H17v3.143h3.1v8.8H23.81v-8.8Z" transform="translate(-6.952 -4.429)"/></svg>