<svg xmlns="http://www.w3.org/2000/svg" width="125.042" height="30" viewBox="0 0 125.042 30"><defs><style>.a{fill:#070304;}</style></defs><g transform="translate(-44.003 -173.701)"><g transform="translate(44.003 173.701)"><path class="a" d="M74.217,189.275l-6.289,10.962a1.58,1.58,0,0,1-.987.574H54.362a1.58,1.58,0,0,1-.987-.574l-6.29-10.962a1.608,1.608,0,0,1,0-1.148l6.29-10.963a1.582,1.582,0,0,1,.987-.573H66.941a1.583,1.583,0,0,1,.987.573l6.289,10.963a1.6,1.6,0,0,1,0,1.148M76.9,187.03l-6.688-11.658a3.681,3.681,0,0,0-2.876-1.671H53.963a3.681,3.681,0,0,0-2.876,1.671L44.4,187.03a3.727,3.727,0,0,0,0,3.342l6.688,11.658a3.68,3.68,0,0,0,2.876,1.671H67.339a3.68,3.68,0,0,0,2.876-1.671L76.9,190.372a3.729,3.729,0,0,0,0-3.342" transform="translate(-44.003 -173.701)"/><rect class="a" width="9.939" height="2.129" transform="translate(6.709 15.192)"/><rect class="a" width="7.99" height="2.129" transform="translate(8.658 18.998)"/><rect class="a" width="6.041" height="2.129" transform="translate(10.607 22.805)"/><path class="a" d="M160.064,198.584a77.159,77.159,0,0,1,4.1,8.053.472.472,0,0,1-.266.686l-.759.324a.458.458,0,0,1-.663-.285,77.624,77.624,0,0,0-3.888-7.959.459.459,0,0,1,.19-.7l.607-.324a.461.461,0,0,1,.683.209m-5.936.742a30.251,30.251,0,0,1-3.869,8.054.48.48,0,0,1-.7.152l-.588-.324a.441.441,0,0,1-.171-.7,30.725,30.725,0,0,0,3.528-7.768.444.444,0,0,1,.645-.323l.834.285a.453.453,0,0,1,.322.628m10.355-3.884v.038a.453.453,0,0,1-.512.514H148.8a.454.454,0,0,1-.512-.514v-.038a.454.454,0,0,1,.512-.514h6.619V191.9a.454.454,0,0,1,.512-.514h.91a.454.454,0,0,1,.512.514v3.027h6.619a.453.453,0,0,1,.512.514" transform="translate(-108.089 -184.547)"/><path class="a" d="M216.155,201.841h4.438V199h-4.438Zm0-3.752h4.438v-2.7h-4.438Zm-5.632-3.676h4.343a25.779,25.779,0,0,0,2.067-2.152h-4.874a17.872,17.872,0,0,1-1.536,2.152m-.1,3.676H214.3v-2.7h-3.869Zm-.19,3.752H214.3V199h-3.869a25.965,25.965,0,0,1-.19,2.838m2.618-11.084c-.076.152-.152.342-.266.571h5.727a.454.454,0,0,1,.512.514v.038a.983.983,0,0,1-.208.647,21.839,21.839,0,0,1-1.8,1.886h5.139a.454.454,0,0,1,.512.514v9.979c0,2.019-.246,2.285-2.5,2.285-.228,0-1.006-.037-2.295-.076-.342-.019-.531-.19-.531-.514-.019-.324.171-.5.531-.476,1.213.038,1.9.1,2.086.1.815,0,.835-.019.835-1.257v-2.19H210.086a10.839,10.839,0,0,1-1.745,4.361.448.448,0,0,1-.721.114l-.55-.457a.5.5,0,0,1-.133-.7c1.157-1.9,1.612-4.171,1.612-8.094v-1.543l-.8.648a.409.409,0,0,1-.7-.152l-.19-.381a.521.521,0,0,1,.152-.7,15.617,15.617,0,0,0,4.153-5.561.525.525,0,0,1,.644-.324l.7.134a.421.421,0,0,1,.342.648" transform="translate(-144.039 -183.672)"/><path class="a" d="M271.439,194.191c.873.4,1.556.781,2.048,1.066a9.321,9.321,0,0,0,1.252-1.238c-.341-.228-.72-.514-1.195-.838a13.825,13.825,0,0,1-2.105,1.009m4.134-2.609a11.549,11.549,0,0,1-1.062.933l1.023.7a.44.44,0,0,1,.1.723l-.228.286.019.019c.36.134.436.419.171.686a9.641,9.641,0,0,1-1.081.952l1.023.7a.449.449,0,0,1,.1.723l-.057.076a.473.473,0,0,1-.74.076c-.569-.419-1-.723-1.289-.933a13.445,13.445,0,0,1-1.953.953.6.6,0,0,1-.7-.134c-.247-.228-.171-.476.19-.628a14.556,14.556,0,0,0,1.479-.8c-.55-.323-1.006-.59-1.366-.761-.323-.172-.4-.419-.171-.7l.152-.191-.228-.21c-.284-.266-.228-.552.133-.7a9.678,9.678,0,0,0,1.479-.8c-.55-.324-1.006-.591-1.366-.762a.425.425,0,0,1-.171-.7.462.462,0,0,1,.645-.114,17.817,17.817,0,0,1,1.821.914,10.133,10.133,0,0,0,.986-.914.556.556,0,0,1,.7-.172l.227.1c.36.152.436.419.171.685m-9.407.419c1.081-.114,2.352-.343,3.812-.628a.45.45,0,0,1,.607.381.444.444,0,0,1-.417.571c-.854.171-1.726.3-2.56.438l.038,1.029h2.37a.453.453,0,0,1,.512.514q0,.229-.512.229h-2.332l.057,1.39h2.275a.454.454,0,0,1,.512.515c0,.152-.171.247-.512.247H267.78l.056,1.447H278.8l.038-1.447h-2.219a.453.453,0,0,1-.512-.514c0-.153.171-.248.512-.248h2.256l.038-1.39h-2.295a.454.454,0,0,1-.512-.514q0-.229.512-.228h2.332l.057-1.333h-2.5a.453.453,0,0,1-.512-.514c0-.248.171-.381.512-.381h3.926a.46.46,0,0,1,.512.533l-.266,6.036h.607a.454.454,0,0,1,.512.515v2.095a.453.453,0,0,1-.512.514h-.854a.453.453,0,0,1-.512-.514v-1.733h-13.2v1.733a.453.453,0,0,1-.512.514h-.853a.453.453,0,0,1-.512-.514v-2.095a.454.454,0,0,1,.512-.515h.588l-.246-5.579a.48.48,0,0,1,.474-.553m12.726,8.8a.633.633,0,0,1-.342.61,30.534,30.534,0,0,1-4.532,2.266h7.358a.454.454,0,0,1,.512.514c0,.286-.171.438-.512.438h-6.808v1.942c0,1.1-.284,1.3-2.484,1.3-.759,0-1.631-.019-2.637-.076a.5.5,0,0,1-.512-.515c-.019-.324.171-.495.531-.476,1.233.038,2.029.095,2.409.095.834,0,.739.1.739-.781v-1.485h-7.359a.454.454,0,0,1-.512-.514c0-.286.171-.438.512-.438h7.359v-.362a.453.453,0,0,1,.512-.514h.531a35.565,35.565,0,0,0,3.205-1.543h-8.61a.453.453,0,0,1-.512-.514c0-.229.17-.362.512-.362h10.127c.342,0,.512.153.512.419" transform="translate(-179.66 -184.152)"/><path class="a" d="M338.909,196.377a.448.448,0,0,1-.512.494h-5.254a.453.453,0,0,1-.512-.514q0-.457.512-.457H338.4c.341,0,.512.172.512.476m2.219-2.856v2.552a.453.453,0,0,1-.512.514h-.872a.453.453,0,0,1-.512-.514v-2.095h-6.96v2.095a.453.453,0,0,1-.512.514h-.816a.453.453,0,0,1-.512-.514V193.52a.454.454,0,0,1,.512-.514h3.66v-1.6a.454.454,0,0,1,.513-.514h.91a.454.454,0,0,1,.512.514v1.6h4.077a.454.454,0,0,1,.512.514m-.266,6.36a.453.453,0,0,1-.511.514h-2.6v5.313c0,.876-.133.857.929.857.607,0,.7,0,.891-.514a13.263,13.263,0,0,0,.19-2.419c.019-.362.209-.533.551-.495l.74.076a.481.481,0,0,1,.474.552c-.019.571-.019.914-.076,1.485a2.52,2.52,0,0,1-.683,2,2.026,2.026,0,0,1-.854.267c-.17.038-1,.057-1.289.057-2.371,0-2.75-.229-2.75-1.39v-5.789h-1.1c-.038,3.98-1.271,5.827-5.159,7.313a.511.511,0,0,1-.683-.229l-.056-.115a.423.423,0,0,1,.228-.686c2.788-1.123,3.755-2.723,3.831-6.284h-1.764a.453.453,0,0,1-.512-.514.448.448,0,0,1,.512-.5h9.179a.448.448,0,0,1,.511.5m-10.7-6.779c-1.005,2.571-1.46,3.485-1.82,4.4a5.872,5.872,0,0,1,1.707,4.227c0,1.6-.758,2.418-2.655,2.418a.485.485,0,0,1-.512-.457c-.057-.3.114-.5.474-.5h-.152c.816,0,1.138-.342,1.138-1.752a5.4,5.4,0,0,0-1.384-3.6.607.607,0,0,1-.1-.7,36.009,36.009,0,0,0,1.726-4.513h-2.257v14.682a.453.453,0,0,1-.512.514h-.645a.453.453,0,0,1-.512-.514V192.225a.454.454,0,0,1,.512-.514h4.608a.454.454,0,0,1,.512.514v.228a1.649,1.649,0,0,1-.133.648" transform="translate(-216.484 -184.243)"/></g></g></svg>